<svg width="36" height="36" viewBox="0 0 36 36" fill="none" xmlns="http://www.w3.org/2000/svg">
<path d="M18 33C15.925 33 14.1563 32.2688 12.6938 30.8063C11.2313 29.3438 10.5 27.575 10.5 25.5C10.5 24.225 10.7875 23.025 11.3625 21.9C11.9375 20.775 12.7875 19.9375 13.9125 19.3875V7.0875C13.9125 5.95208 14.3099 4.98698 15.1047 4.1922C15.8995 3.3974 16.8646 3 18 3C19.1354 3 20.1005 3.3974 20.8953 4.1922C21.6901 4.98698 22.0875 5.95208 22.0875 7.0875V19.3875C23.2125 19.9375 24.0625 20.775 24.6375 21.9C25.2125 23.025 25.5 24.225 25.5 25.5C25.5 27.575 24.7688 29.3438 23.3063 30.8063C21.8438 32.2688 20.075 33 18 33ZM16.1625 16.6875H19.8375V14.7H18V13.2375H19.8375V9.975H18V8.53125H19.8375V7.0875C19.8375 6.56688 19.661 6.13048 19.3079 5.7783C18.9548 5.4261 18.5173 5.25 17.9954 5.25C17.4735 5.25 17.0375 5.4261 16.6875 5.7783C16.3375 6.13048 16.1625 6.56688 16.1625 7.0875V16.6875Z" fill="#F7F7F7"/>
</svg>
