<svg width="36" height="36" viewBox="0 0 36 36" fill="none" xmlns="http://www.w3.org/2000/svg">
<path d="M21.7544 26.625C22.2765 26.625 22.7188 26.4423 23.0813 26.0768C23.4438 25.7114 23.625 25.2677 23.625 24.7456C23.625 24.2235 23.4423 23.7813 23.0768 23.4188C22.7114 23.0563 22.2677 22.875 21.7456 22.875C21.2235 22.875 20.7813 23.0577 20.4188 23.4232C20.0563 23.7886 19.875 24.2324 19.875 24.7544C19.875 25.2765 20.0577 25.7188 20.4232 26.0813C20.7886 26.4438 21.2323 26.625 21.7544 26.625ZM14.175 26.4L23.4 17.175L21.825 15.6L12.6 24.825L14.175 26.4ZM14.2544 19.125C14.7765 19.125 15.2188 18.9423 15.5813 18.5768C15.9438 18.2114 16.125 17.7677 16.125 17.2456C16.125 16.7235 15.9423 16.2813 15.5768 15.9188C15.2114 15.5563 14.7676 15.375 14.2456 15.375C13.7235 15.375 13.2813 15.5577 12.9188 15.9232C12.5563 16.2886 12.375 16.7323 12.375 17.2544C12.375 17.7765 12.5577 18.2188 12.9232 18.5813C13.2886 18.9438 13.7324 19.125 14.2544 19.125ZM18 33C14.575 33 11.7188 31.825 9.43125 29.475C7.14375 27.125 6 24.2 6 20.7C6 18.2 6.99375 15.4813 8.98125 12.5438C10.9688 9.60625 13.975 6.425 18 3C22.025 6.425 25.0313 9.60625 27.0188 12.5438C29.0063 15.4813 30 18.2 30 20.7C30 24.2 28.8563 27.125 26.5688 29.475C24.2813 31.825 21.425 33 18 33ZM18 30.75C20.8 30.75 23.125 29.7938 24.975 27.8813C26.825 25.9688 27.75 23.571 27.75 20.6879C27.75 18.721 26.9188 16.4813 25.2563 13.9688C23.5938 11.4563 21.175 8.8 18 6C14.825 8.8 12.4063 11.4563 10.7438 13.9688C9.08125 16.4813 8.25 18.721 8.25 20.6879C8.25 23.571 9.175 25.9688 11.025 27.8813C12.875 29.7938 15.2 30.75 18 30.75Z" fill="#F7F7F7"/>
</svg>
