<svg width="151" height="25" viewBox="0 0 151 25" fill="none" xmlns="http://www.w3.org/2000/svg">
<path d="M0.272 24V7.296H3.088V24H0.272ZM0.272 4.16V0.639999H3.088V4.16H0.272ZM22.143 24H19.327V14.656C19.327 12.8853 19.0497 11.5947 18.495 10.784C17.9617 9.952 17.1403 9.536 16.031 9.536C15.263 9.536 14.495 9.728 13.727 10.112C12.9803 10.496 12.3083 11.0187 11.711 11.68C11.135 12.32 10.719 13.0667 10.463 13.92V24H7.647V7.296H10.207V10.88C10.655 10.0907 11.231 9.408 11.935 8.832C12.639 8.256 13.439 7.808 14.335 7.488C15.231 7.168 16.1697 7.008 17.151 7.008C18.111 7.008 18.911 7.18933 19.551 7.552C20.2123 7.89333 20.7243 8.384 21.087 9.024C21.471 9.64267 21.7377 10.3787 21.887 11.232C22.0577 12.0853 22.143 13.0133 22.143 14.016V24ZM33.4775 1.408H36.1975L39.2055 9.312L42.2455 1.408H44.9655L41.0295 11.296L44.9335 20.672L52.6135 1.28H55.7495L46.2455 24H43.7495L39.2375 13.28L34.6935 24H32.1975L22.7255 1.28H25.8295L33.5415 20.672L37.4135 11.296L33.4775 1.408ZM63.4765 24.32C62.2178 24.32 61.0658 24.096 60.0205 23.648C58.9965 23.1787 58.1005 22.5493 57.3325 21.76C56.5858 20.9493 55.9992 20.0213 55.5725 18.976C55.1672 17.9307 54.9645 16.8213 54.9645 15.648C54.9645 14.0693 55.3272 12.6293 56.0525 11.328C56.7778 10.0267 57.7805 8.98133 59.0605 8.192C60.3618 7.40267 61.8445 7.008 63.5085 7.008C65.1938 7.008 66.6552 7.41333 67.8925 8.224C69.1512 9.01333 70.1218 10.0587 70.8045 11.36C71.5085 12.64 71.8605 14.0267 71.8605 15.52C71.8605 15.7333 71.8498 15.9467 71.8285 16.16C71.8285 16.352 71.8178 16.5013 71.7965 16.608H57.9405C58.0258 17.696 58.3245 18.6667 58.8365 19.52C59.3698 20.352 60.0525 21.0133 60.8845 21.504C61.7165 21.9733 62.6125 22.208 63.5725 22.208C64.5965 22.208 65.5565 21.952 66.4525 21.44C67.3698 20.928 67.9992 20.256 68.3405 19.424L70.7725 20.096C70.4098 20.9067 69.8658 21.632 69.1405 22.272C68.4365 22.912 67.5938 23.4133 66.6125 23.776C65.6525 24.1387 64.6072 24.32 63.4765 24.32ZM57.8445 14.656H69.2365C69.1512 13.568 68.8418 12.608 68.3085 11.776C67.7752 10.944 67.0925 10.2933 66.2605 9.824C65.4285 9.35467 64.5112 9.12 63.5085 9.12C62.5272 9.12 61.6205 9.35467 60.7885 9.824C59.9565 10.2933 59.2738 10.944 58.7405 11.776C58.2285 12.608 57.9298 13.568 57.8445 14.656ZM73.6788 19.168C73.6788 18.1013 73.9774 17.184 74.5748 16.416C75.1934 15.6267 76.0361 15.0187 77.1028 14.592C78.1694 14.1653 79.4068 13.952 80.8148 13.952C81.5614 13.952 82.3508 14.016 83.1828 14.144C84.0148 14.2507 84.7508 14.4213 85.3908 14.656V13.44C85.3908 12.16 85.0068 11.1573 84.2388 10.432C83.4708 9.68533 82.3828 9.312 80.9748 9.312C80.0574 9.312 79.1721 9.48267 78.3188 9.824C77.4868 10.144 76.6014 10.6133 75.6628 11.232L74.6388 9.248C75.7268 8.50133 76.8148 7.94667 77.9028 7.584C78.9908 7.2 80.1214 7.008 81.2948 7.008C83.4281 7.008 85.1134 7.60533 86.3508 8.8C87.5881 9.97333 88.2068 11.616 88.2068 13.728V20.8C88.2068 21.1413 88.2708 21.3973 88.3988 21.568C88.5481 21.7173 88.7828 21.8027 89.1028 21.824V24C88.8254 24.0427 88.5801 24.0747 88.3668 24.096C88.1748 24.1173 88.0148 24.128 87.8868 24.128C87.2254 24.128 86.7241 23.9467 86.3828 23.584C86.0628 23.2213 85.8814 22.8373 85.8388 22.432L85.7748 21.376C85.0494 22.3147 84.1001 23.04 82.9268 23.552C81.7534 24.064 80.5908 24.32 79.4388 24.32C78.3294 24.32 77.3374 24.096 76.4628 23.648C75.5881 23.1787 74.9054 22.56 74.4148 21.792C73.9241 21.0027 73.6788 20.128 73.6788 19.168ZM84.5588 20.352C84.8148 20.0533 85.0174 19.7547 85.1668 19.456C85.3161 19.136 85.3908 18.8693 85.3908 18.656V16.576C84.7294 16.32 84.0361 16.128 83.3108 16C82.5854 15.8507 81.8708 15.776 81.1667 15.776C79.7374 15.776 78.5748 16.064 77.6788 16.64C76.8041 17.1947 76.3668 17.9627 76.3668 18.944C76.3668 19.4773 76.5054 20 76.7828 20.512C77.0814 21.0027 77.5081 21.408 78.0628 21.728C78.6388 22.048 79.3428 22.208 80.1748 22.208C81.0494 22.208 81.8814 22.0373 82.6708 21.696C83.4601 21.3333 84.0894 20.8853 84.5588 20.352ZM101.225 23.168C100.99 23.2747 100.67 23.4133 100.265 23.584C99.8592 23.7547 99.3898 23.904 98.8565 24.032C98.3232 24.16 97.7578 24.224 97.1605 24.224C96.4778 24.224 95.8485 24.1067 95.2725 23.872C94.6965 23.616 94.2378 23.232 93.8965 22.72C93.5552 22.1867 93.3845 21.5253 93.3845 20.736V9.504H91.1125V7.296H93.3845V1.728H96.2005V7.296H99.9445V9.504H96.2005V19.872C96.2432 20.4693 96.4458 20.9173 96.8085 21.216C97.1712 21.4933 97.5978 21.632 98.0885 21.632C98.6432 21.632 99.1552 21.536 99.6245 21.344C100.094 21.152 100.403 21.0133 100.553 20.928L101.225 23.168ZM118.331 24H115.515V14.656C115.515 12.9493 115.205 11.6693 114.587 10.816C113.989 9.96267 113.125 9.536 111.995 9.536C111.269 9.536 110.533 9.728 109.786 10.112C109.061 10.496 108.421 11.0187 107.867 11.68C107.312 12.32 106.907 13.0667 106.651 13.92V24H103.835V0.639999H106.651V10.88C107.312 9.68533 108.208 8.74667 109.339 8.064C110.491 7.36 111.728 7.008 113.051 7.008C114.053 7.008 114.885 7.18933 115.547 7.552C116.229 7.89333 116.773 8.384 117.179 9.024C117.584 9.664 117.872 10.4107 118.043 11.264C118.235 12.096 118.331 13.0133 118.331 14.016V24ZM130.102 24.32C128.843 24.32 127.691 24.096 126.646 23.648C125.622 23.1787 124.726 22.5493 123.958 21.76C123.211 20.9493 122.624 20.0213 122.198 18.976C121.792 17.9307 121.59 16.8213 121.59 15.648C121.59 14.0693 121.952 12.6293 122.678 11.328C123.403 10.0267 124.406 8.98133 125.686 8.192C126.987 7.40267 128.47 7.008 130.134 7.008C131.819 7.008 133.28 7.41333 134.518 8.224C135.776 9.01333 136.747 10.0587 137.43 11.36C138.134 12.64 138.486 14.0267 138.486 15.52C138.486 15.7333 138.475 15.9467 138.454 16.16C138.454 16.352 138.443 16.5013 138.422 16.608H124.566C124.651 17.696 124.95 18.6667 125.462 19.52C125.995 20.352 126.678 21.0133 127.51 21.504C128.342 21.9733 129.238 22.208 130.198 22.208C131.222 22.208 132.182 21.952 133.078 21.44C133.995 20.928 134.624 20.256 134.966 19.424L137.398 20.096C137.035 20.9067 136.491 21.632 135.766 22.272C135.062 22.912 134.219 23.4133 133.238 23.776C132.278 24.1387 131.232 24.32 130.102 24.32ZM124.47 14.656H135.862C135.776 13.568 135.467 12.608 134.934 11.776C134.4 10.944 133.718 10.2933 132.886 9.824C132.054 9.35467 131.136 9.12 130.134 9.12C129.152 9.12 128.246 9.35467 127.414 9.824C126.582 10.2933 125.899 10.944 125.366 11.776C124.854 12.608 124.555 13.568 124.47 14.656ZM150.448 9.76C149.04 9.78133 147.792 10.144 146.704 10.848C145.637 11.5307 144.88 12.48 144.432 13.696V24H141.616V7.296H144.24V11.168C144.816 10.016 145.573 9.088 146.512 8.384C147.472 7.65867 148.474 7.25333 149.52 7.168C149.733 7.168 149.914 7.168 150.064 7.168C150.213 7.168 150.341 7.17867 150.448 7.2V9.76Z" fill="white"/>
</svg>
