<svg width="36" height="36" viewBox="0 0 36 36" fill="none" xmlns="http://www.w3.org/2000/svg">
<path d="M18 31.5C16.125 31.5 14.5188 30.8313 13.1813 29.4938C11.8438 28.1563 11.175 26.55 11.175 24.675C11.175 23.475 11.475 22.3375 12.075 21.2625C12.675 20.1875 13.5 19.325 14.55 18.675V7.95C14.55 7 14.8875 6.1875 15.5625 5.5125C16.2375 4.8375 17.05 4.5 18 4.5C18.95 4.5 19.7625 4.8375 20.4375 5.5125C21.1125 6.1875 21.45 7 21.45 7.95V18.675C22.5 19.325 23.325 20.1875 23.925 21.2625C24.525 22.3375 24.825 23.475 24.825 24.675C24.825 26.55 24.1563 28.1563 22.8188 29.4938C21.4813 30.8313 19.875 31.5 18 31.5ZM18 29.2875C19.2 29.2875 20.2625 28.8188 21.1875 27.8813C22.1125 26.9438 22.575 25.875 22.575 24.675C22.575 23.8 22.3375 22.9313 21.8625 22.0688C21.3875 21.2063 20.75 20.6 19.95 20.25L19.2 19.9125V7.95C19.2 7.6 19.0875 7.3125 18.8625 7.0875C18.6375 6.8625 18.35 6.75 18 6.75C17.65 6.75 17.3625 6.8625 17.1375 7.0875C16.9125 7.3125 16.8 7.6 16.8 7.95V19.9125L16.05 20.25C15.25 20.6 14.6125 21.2063 14.1375 22.0688C13.6625 22.9313 13.425 23.8 13.425 24.675C13.425 25.875 13.8875 26.9438 14.8125 27.8813C15.7375 28.8188 16.8 29.2875 18 29.2875Z" fill="#F7F7F7"/>
</svg>
